<svg xmlns="http://www.w3.org/2000/svg" xmlns:xlink="http://www.w3.org/1999/xlink" width="24" height="23" viewBox="0 0 24 23"><defs><path id="a" d="M411.33 594.3l4.72-2.23 4.82 2.26c-.61-.29 1.56 1.24 1.36-.88l-.5-5.3 3.49-3.89c-.56.62 1.54-1.08-.42-1.45a66.05 66.05 0 0 0-5.52-.63s-1.4-3.26-2.45-5.06c.49.84-.55-1.85-1.58-.04-1.04 1.8-2.55 5.11-2.55 5.11s-3.43.27-5.41.65c.77-.15-1.81-.08-.5 1.37l3.57 3.96-.48 5.32c.05-.53-.68 1.82 1.45.81z"/></defs><g transform="translate(-404 -574)"><use fill="#bdc3c7" xlink:href="#a"/><use fill="#4b536b" xlink:href="#a"/></g></svg>